<?xml version="1.0" standalone="no"?>
<!DOCTYPE svg PUBLIC "-//W3C//DTD SVG 20010904//EN"
 "http://www.w3.org/TR/2001/REC-SVG-20010904/DTD/svg10.dtd">
<svg version="1.0" xmlns="http://www.w3.org/2000/svg"
 width="800.000000pt" height="800.000000pt" viewBox="0 0 800.000000 800.000000"
 preserveAspectRatio="xMidYMid meet">
<metadata>
Created by potrace 1.14, written by Peter Selinger 2001-2017
</metadata>
<g transform="translate(0.000000,800.000000) scale(0.100000,-0.100000)"
fill="#000000" stroke="none">
<path d="M5808 6503 c-6 -16 -11 -31 -10 -35 1 -5 -2 -8 -8 -8 -5 0 -10 -8
-10 -18 0 -10 -4 -22 -8 -27 -16 -18 -122 -268 -122 -287 0 -4 12 -3 28 3 15
6 27 10 27 9 0 -1 13 4 29 10 44 16 58 7 52 -37 -3 -21 -8 -65 -11 -98 -4 -33
-9 -68 -12 -79 -3 -11 -1 -17 7 -14 13 4 187 328 196 365 6 22 4 23 -72 20
l-79 -2 1 50 c0 28 4 78 7 113 8 67 3 78 -15 35z"/>
<path d="M6031 6078 c-21 -24 -52 -56 -67 -73 l-28 -30 37 -3 c20 -2 37 -5 37
-8 0 -3 -9 -23 -21 -45 -11 -23 -18 -44 -14 -47 3 -3 37 25 75 63 l70 70 -27
8 c-60 18 -57 16 -41 35 20 25 39 72 28 72 -5 0 -27 -19 -49 -42z"/>
<path d="M5495 6090 c4 -14 11 -29 16 -34 13 -14 -9 -46 -31 -46 -11 0 -20 -5
-20 -11 0 -14 130 -139 144 -139 2 0 -6 21 -19 48 -24 49 -21 60 19 76 6 2
-18 32 -53 67 -49 49 -62 58 -56 39z"/>
<path d="M5737 5788 c-81 -10 -164 -56 -204 -113 -52 -74 -64 -197 -78 -785
-4 -171 -11 -388 -18 -587 -1 -34 -5 -64 -8 -67 -3 -4 -34 7 -68 24 -102 51
-227 47 -352 -12 -52 -25 -74 -42 -99 -79 -18 -26 -37 -49 -44 -51 -6 -2 -40
-3 -76 -2 -82 2 -152 -10 -210 -38 -42 -20 -60 -37 -127 -116 -28 -32 -37 -36
-118 -48 -192 -27 -259 -77 -298 -219 -24 -89 -31 -171 -31 -355 0 -170 10
-302 30 -390 3 -14 8 -36 10 -50 2 -14 10 -47 16 -75 7 -27 13 -52 13 -55 4
-18 28 -98 45 -147 16 -51 32 -93 72 -197 35 -93 140 -286 222 -411 38 -58 60
-103 62 -125 2 -19 6 -79 9 -134 9 -135 22 -164 88 -194 46 -20 167 -25 612
-24 632 1 785 10 837 46 40 28 49 53 54 158 10 205 8 199 73 334 60 123 139
304 146 334 2 8 18 56 35 105 29 86 53 170 64 225 2 14 10 50 16 80 7 30 13
98 15 150 4 123 -16 188 -123 410 -20 41 -40 77 -44 78 -4 2 -8 8 -8 13 0 4
-21 43 -46 86 -45 76 -46 81 -50 173 -6 155 -14 410 -19 640 -3 118 -8 298
-10 400 -3 102 -7 271 -10 375 -8 347 -15 424 -44 490 -47 106 -191 172 -334
153z m165 -158 c30 -14 57 -62 63 -115 5 -37 11 -228 20 -640 3 -132 8 -305
10 -385 2 -80 7 -228 10 -330 3 -102 7 -220 10 -263 3 -43 2 -77 -2 -74 -78
40 -87 42 -252 43 l-164 1 -14 26 c-11 22 -13 99 -8 439 2 227 7 476 10 553
19 556 21 575 39 639 39 134 136 171 278 106z m-648 -1472 c22 -6 55 -25 73
-41 31 -29 83 -117 83 -141 0 -7 9 -31 21 -55 34 -70 44 -66 -186 -76 -221
-10 -227 -9 -238 36 -39 167 -4 234 142 274 60 17 57 17 105 3z m-432 -183
c43 -17 69 -166 42 -238 -53 -139 -16 -249 135 -406 85 -87 104 -128 87 -181
-18 -54 -104 -103 -183 -104 -46 -1 -56 3 -87 33 -95 92 -235 500 -242 709 -4
119 4 139 65 167 72 32 134 39 183 20z m-401 -197 c0 -7 2 -20 4 -28 2 -8 6
-30 10 -49 3 -19 8 -37 10 -41 2 -3 6 -17 8 -31 4 -19 19 -75 32 -119 1 -3 5
-18 10 -35 4 -16 12 -36 18 -42 5 -7 7 -13 4 -13 -7 0 65 -208 94 -268 25 -55
34 -119 20 -154 -13 -34 -54 -56 -119 -64 -46 -5 -52 -3 -88 28 -22 18 -40 36
-42 40 -2 3 -12 16 -22 28 -28 32 -104 193 -134 284 -56 165 -73 310 -46 376
13 32 61 62 135 86 53 17 105 17 106 2z m1465 -57 c47 -14 100 -75 192 -224
82 -131 190 -351 199 -402 9 -52 8 -166 -1 -235 -17 -134 -82 -357 -146 -505
-40 -90 -67 -148 -125 -269 l-68 -138 1 -97 c1 -53 -1 -108 -4 -123 -7 -35
-44 -49 -152 -57 -113 -8 -1025 -6 -1075 3 -78 13 -95 33 -95 116 0 184 7 161
-93 315 -105 163 -214 380 -259 515 -33 102 -85 310 -94 375 -3 22 -7 51 -10
63 -8 37 16 12 60 -64 47 -81 137 -166 196 -187 92 -31 188 -8 279 66 62 49
82 56 129 42 80 -23 211 8 290 68 84 63 92 67 114 54 12 -7 67 -11 131 -12 88
0 123 5 178 23 59 20 70 21 82 8 8 -8 15 -17 15 -20 0 -6 25 -39 53 -68 34
-36 107 -14 107 33 0 11 -11 44 -24 72 -49 105 -66 146 -66 157 0 7 -8 28 -17
47 -22 46 -56 60 -173 68 -131 9 -247 22 -261 30 -3 2 -20 7 -36 10 -115 20
-208 106 -243 226 -21 71 50 89 407 104 76 4 138 7 139 8 9 9 338 7 370 -2z
m-460 -505 c28 -4 64 -11 80 -15 l29 -8 -40 -17 c-22 -10 -61 -19 -88 -21 -81
-5 -166 27 -154 58 6 15 69 16 173 3z"/>
<path d="M5129 2779 c-7 -4 -17 -5 -21 -3 -4 3 -14 2 -20 -3 -7 -4 -19 -8 -26
-9 -24 -4 -125 -58 -177 -94 -46 -32 -66 -49 -120 -97 -38 -33 -92 -108 -103
-141 -10 -28 -8 -35 11 -56 27 -30 173 -153 207 -175 14 -8 27 -18 30 -22 3
-4 41 -25 85 -47 99 -49 190 -71 292 -67 164 5 278 60 473 224 47 40 90 76 97
81 30 24 -33 138 -127 231 -122 120 -295 187 -487 187 -55 -1 -107 -4 -114 -9z
m269 -87 c17 -6 32 -8 32 -5 0 3 6 1 13 -4 6 -6 29 -16 49 -22 38 -13 131 -71
183 -116 l30 -26 -40 17 c-22 9 -44 19 -50 23 -5 4 -35 17 -65 29 -102 39
-185 56 -280 55 -135 0 -229 -22 -365 -87 -38 -18 -72 -32 -74 -30 -6 5 53 53
67 54 6 0 12 4 12 8 0 21 166 97 233 107 23 4 44 8 46 11 7 7 176 -4 209 -14z
m0 -159 c50 -40 71 -86 67 -148 -4 -62 -15 -92 -51 -134 -95 -113 -273 -86
-337 51 -19 39 -23 133 -7 143 6 4 8 10 5 15 -10 16 55 78 98 94 28 10 66 15
115 12 63 -3 78 -7 110 -33z m-437 -70 c0 -5 2 -44 4 -88 2 -44 7 -90 10 -102
3 -13 1 -23 -3 -23 -23 0 -162 118 -162 137 0 27 148 101 151 76z m700 -38
l70 -36 -53 -49 c-29 -27 -73 -64 -97 -82 -48 -35 -48 -35 -26 42 4 14 9 52
11 85 2 33 3 63 4 68 0 13 20 7 91 -28z"/>
<path d="M5166 2444 c-21 -21 -20 -42 5 -83 30 -50 68 -81 99 -81 15 0 78 67
96 102 14 27 14 32 -1 54 -17 26 -71 34 -92 13 -8 -8 -17 -8 -31 0 -29 15 -58
14 -76 -5z"/>
<path d="M683 5622 c-82 -18 -192 -74 -251 -128 -137 -122 -165 -310 -148
-966 8 -290 11 -295 146 -292 74 1 86 4 102 24 10 12 18 36 19 54 1 17 2 72 4
121 2 50 4 92 5 95 1 3 2 28 2 57 0 29 6 60 13 69 12 17 17 16 95 -6 114 -32
205 -31 296 6 82 32 111 52 176 119 58 61 112 160 132 244 15 65 15 193 -1
251 -39 141 -163 276 -303 327 -101 38 -197 46 -287 25z m208 -287 c39 -21 99
-84 99 -106 0 -9 3 -19 7 -23 19 -19 22 -107 6 -156 -64 -193 -341 -202 -424
-14 -53 119 24 274 156 315 34 10 122 1 156 -16z"/>
<path d="M2795 5632 c-154 -15 -290 -112 -365 -258 l-35 -69 -2 -195 c-1 -107
-2 -319 -2 -470 0 -151 0 -284 0 -295 -1 -38 20 -95 37 -103 33 -16 187 -2
208 20 15 15 16 21 28 362 3 65 9 123 14 128 12 12 44 -21 85 -91 18 -29 42
-70 55 -90 12 -20 25 -43 29 -51 4 -8 11 -19 16 -25 4 -5 23 -34 40 -64 58
-98 66 -111 97 -144 39 -44 74 -53 192 -52 111 2 131 11 118 55 -9 32 -60 123
-72 128 -4 2 -8 7 -8 12 0 5 -38 69 -84 142 -143 228 -148 247 -83 283 118 67
187 172 194 298 3 40 0 92 -6 117 -7 25 -13 50 -14 55 -10 39 -71 135 -114
180 -84 86 -218 138 -328 127z m102 -301 c46 -19 76 -73 76 -135 0 -101 -59
-159 -153 -152 -62 6 -102 33 -129 89 -25 52 -26 78 -5 123 36 75 130 109 211
75z"/>
<path d="M1677 5605 c-135 -46 -234 -135 -294 -262 l-33 -72 -1 -478 c-1 -263
1 -486 3 -496 11 -47 31 -55 132 -53 70 1 100 5 110 16 18 19 26 69 32 195 7
170 13 192 57 203 26 7 225 9 289 3 10 0 25 -12 34 -26 17 -27 18 -36 29 -245
3 -74 10 -138 14 -143 9 -9 179 -12 208 -3 13 4 26 19 30 34 8 28 10 897 3
967 -2 22 -7 47 -11 55 -4 8 -19 41 -34 73 -31 68 -123 163 -186 194 -44 21
-69 31 -79 30 -3 0 -16 6 -30 13 -14 8 -63 14 -115 16 -71 1 -104 -3 -158 -21z
m222 -265 c95 -49 114 -89 116 -257 l2 -133 -41 -1 c-163 -2 -329 0 -334 5 -8
9 -7 192 1 232 19 92 73 159 139 174 42 9 71 4 117 -20z"/>
<path d="M3725 5616 c-27 -7 -61 -18 -75 -23 -14 -6 -29 -11 -34 -11 -5 0 -12
-4 -15 -9 -3 -5 -23 -19 -43 -32 -68 -41 -140 -136 -175 -231 -21 -55 -27
-196 -27 -627 -1 -370 1 -404 17 -420 14 -14 36 -17 121 -18 58 0 109 5 115
10 13 13 20 54 26 166 11 199 16 223 43 235 31 13 288 12 320 -2 36 -15 40
-34 47 -224 6 -180 9 -190 48 -191 110 -5 186 2 195 16 4 5 9 21 12 35 7 40 6
888 -2 960 -11 92 -49 162 -131 242 -117 112 -294 161 -442 124z m185 -279
c40 -18 80 -51 80 -65 0 -5 6 -15 13 -21 25 -20 40 -115 34 -207 -3 -48 -9
-89 -12 -92 -3 -3 -81 -6 -174 -6 -218 -1 -210 -7 -206 145 2 99 6 116 32 167
47 93 137 124 233 79z"/>
<path d="M4458 5612 c-26 -2 -39 -9 -43 -22 -21 -66 -22 -1027 -1 -1294 5 -63
13 -64 267 -52 229 11 364 64 499 196 80 78 156 204 176 293 2 9 6 27 9 40 95
409 -169 794 -570 833 -71 6 -284 11 -337 6z m380 -297 c248 -87 348 -385 203
-610 -32 -48 -61 -76 -126 -120 -48 -31 -135 -63 -162 -59 -7 1 -24 2 -37 3
l-25 1 -1 193 c-3 356 -1 587 5 597 9 15 94 12 143 -5z"/>
<path d="M6499 5604 c-314 -73 -396 -434 -149 -656 54 -48 149 -101 205 -113
62 -14 143 -52 171 -80 89 -88 23 -253 -103 -255 -57 0 -79 13 -150 93 -24 26
-50 42 -96 56 -144 44 -170 36 -163 -52 22 -253 276 -416 526 -338 181 57 291
214 285 407 -7 216 -121 336 -394 415 -148 43 -205 130 -141 217 20 27 66 55
95 58 22 1 79 -28 118 -61 44 -38 140 -74 215 -80 37 -3 44 -1 51 18 5 12 7
24 6 27 -2 3 -6 22 -9 43 -15 94 -99 208 -191 260 -86 49 -183 63 -276 41z"/>
<path d="M7200 5613 c-14 -2 -38 -6 -55 -8 l-30 -5 -2 -127 c-12 -794 -9
-1200 11 -1220 11 -11 83 -15 281 -15 228 0 292 5 308 21 13 13 16 156 5 199
-12 43 -33 50 -174 55 -148 6 -153 10 -155 122 -2 120 -1 129 20 152 17 18 32
21 133 22 62 1 127 6 144 12 36 11 42 35 39 152 -3 102 -11 107 -166 112 -155
5 -159 8 -158 125 1 108 10 117 126 119 113 3 154 9 173 27 20 19 22 226 2
246 -9 9 -71 13 -245 13 -127 1 -243 0 -257 -2z"/>
<path d="M1410 4126 c-156 -36 -254 -85 -351 -174 -330 -305 -287 -859 86
-1107 139 -91 336 -138 480 -112 56 10 110 39 119 64 15 39 22 117 17 190 -2
35 -35 47 -90 33 -164 -42 -314 -6 -427 102 -95 91 -140 206 -132 341 11 172
124 319 288 375 74 25 144 27 245 7 68 -14 88 -15 100 -5 8 7 13 16 10 20 -3
5 -2 11 3 13 4 3 7 20 6 39 -1 18 -3 56 -5 83 -5 113 -34 133 -209 140 -47 2
-110 -2 -140 -9z"/>
<path d="M1865 4110 c-22 -8 -21 -1 -31 -210 -9 -176 -9 -1032 -1 -1090 9 -59
28 -70 130 -75 51 -3 112 6 124 18 17 18 26 286 26 752 0 417 -7 583 -22 598
-12 12 -196 18 -226 7z"/>
<path d="M2192 4081 c-16 -51 -8 -199 10 -218 11 -10 44 -15 109 -18 52 -1 97
-3 101 -4 4 -1 15 -18 24 -38 13 -33 16 -106 18 -518 3 -502 5 -528 47 -543
27 -10 201 -4 213 8 13 13 22 287 26 807 2 293 -2 285 145 288 137 3 140 6
140 118 -1 98 -9 132 -32 143 -10 5 -192 9 -404 11 l-386 2 -11 -38z"/>
<path d="M3088 4113 c-10 -2 -18 -13 -18 -23 0 -30 52 -158 170 -415 12 -27
61 -133 108 -235 46 -102 86 -196 88 -210 2 -14 6 -126 9 -250 3 -124 9 -228
13 -232 6 -6 147 -12 214 -9 51 2 59 36 64 286 l4 224 54 118 c29 65 73 159
96 208 23 50 50 109 60 132 10 23 31 68 46 100 101 218 125 273 119 283 -11
18 -65 27 -157 26 -131 -3 -132 -3 -225 -216 -97 -222 -119 -265 -141 -268
-15 -2 -22 2 -22 12 0 9 -4 16 -10 16 -5 0 -10 4 -10 9 0 5 -12 35 -27 67 -15
33 -28 61 -29 64 -4 18 -131 299 -140 309 -5 6 -247 10 -266 4z"/>
</g>
</svg>
