<svg id="svg" xmlns="http://www.w3.org/2000/svg" xmlns:xlink="http://www.w3.org/1999/xlink" width="400" height="265.57911908646" viewBox="0, 0, 400,265.57911908646"><g id="svgg"><path id="path0" d="M286.652 15.830 C 281.307 28.130,281.406 27.061,285.764 25.405 C 290.054 23.775,289.784 23.273,288.777 31.001 C 288.310 34.587,288.006 37.610,288.100 37.720 C 288.287 37.936,298.858 17.732,298.858 17.160 C 298.858 16.970,296.949 17.018,294.617 17.268 C 289.739 17.790,290.026 18.335,291.044 10.491 C 291.390 7.827,291.579 5.554,291.465 5.440 C 291.351 5.326,289.185 10.001,286.652 15.830 M274.714 28.200 C 276.235 30.819,276.024 31.974,274.023 31.974 C 271.723 31.974,272.475 32.988,278.873 38.512 L 280.748 40.131 279.362 37.383 C 277.641 33.969,277.634 34.061,279.638 33.812 C 281.216 33.616,281.099 33.409,277.301 29.690 C 273.669 26.132,273.433 25.996,274.714 28.200 M300.223 30.090 L 296.693 33.931 298.768 33.931 L 300.842 33.931 299.478 36.605 C 297.535 40.414,298.095 40.287,302.396 35.940 L 306.186 32.111 304.165 31.667 L 302.144 31.223 303.451 28.662 C 305.228 25.178,304.399 25.545,300.223 30.090 M281.832 44.585 C 274.045 48.695,273.691 50.392,272.759 88.091 C 272.346 104.780,271.876 119.103,271.713 119.920 L 271.418 121.406 268.336 119.593 C 261.679 115.681,249.041 118.284,245.196 124.360 L 243.647 126.807 239.077 126.659 C 231.845 126.425,225.847 129.136,223.207 133.832 C 221.905 136.149,221.751 136.219,216.338 136.917 C 205.281 138.345,202.005 141.998,200.657 154.406 C 197.900 179.780,204.859 207.395,219.837 230.517 L 223.771 236.590 224.173 243.091 C 225.011 256.638,222.586 255.887,264.720 255.651 C 305.698 255.421,303.396 256.190,303.958 242.555 L 304.256 235.319 309.006 225.620 C 316.840 209.623,322.535 188.660,321.331 180.249 C 320.633 175.371,316.779 166.054,312.176 158.121 L 307.944 150.826 307.626 144.418 C 307.344 138.731,306.908 122.706,305.650 71.778 C 305.189 53.144,304.787 50.918,301.242 47.378 C 296.670 42.812,287.649 41.514,281.832 44.585 M293.934 50.516 C 297.853 52.154,298.478 53.916,298.680 63.895 C 299.159 87.557,300.223 126.471,300.586 133.608 L 300.993 141.604 297.904 140.237 C 295.229 139.054,293.800 138.899,287.212 139.082 L 279.608 139.292 278.791 136.800 C 278.011 134.422,279.038 82.381,280.273 61.664 C 280.895 51.232,285.890 47.155,293.934 50.516 M30.556 52.420 C 15.809 58.608,13.330 65.538,14.059 98.532 C 14.581 122.132,14.152 120.721,20.798 120.708 C 27.844 120.694,27.532 121.188,27.811 109.572 C 28.091 97.947,27.988 98.147,32.803 99.839 C 57.233 108.426,75.736 75.275,56.441 57.490 C 49.575 51.161,38.654 49.022,30.556 52.420 M86.310 51.585 C 78.918 53.044,72.530 58.030,69.416 64.774 L 67.537 68.842 67.345 94.137 C 67.124 123.266,66.338 120.392,74.519 120.392 C 80.932 120.392,80.729 120.706,81.270 109.951 C 81.845 98.498,81.209 99.182,91.271 99.194 C 101.832 99.207,101.021 98.336,101.618 110.307 L 102.121 120.392 107.731 120.579 C 111.765 120.713,113.541 120.524,114.054 119.906 C 115.131 118.608,115.273 72.376,114.211 68.519 C 110.882 56.427,98.832 49.113,86.310 51.585 M136.194 51.571 C 129.844 53.165,124.789 57.253,121.892 63.134 L 119.739 67.505 119.541 93.187 C 119.308 123.300,118.729 120.986,126.397 120.583 C 133.272 120.223,132.754 121.277,133.007 107.124 C 133.304 90.459,132.805 90.456,142.824 107.174 C 151.232 121.205,150.661 120.718,158.717 120.718 C 168.193 120.718,168.221 121.513,158.171 105.337 C 149.525 91.420,149.590 91.614,152.988 89.831 C 173.860 78.882,159.323 45.763,136.194 51.571 M186.889 51.532 C 177.892 53.443,170.948 59.961,168.630 68.669 C 167.549 72.729,167.285 117.747,168.332 119.403 C 169.092 120.605,179.604 120.818,180.768 119.655 C 181.206 119.217,181.652 115.246,181.867 109.867 C 182.320 98.512,181.699 99.182,191.760 99.194 C 202.616 99.207,201.914 98.474,202.171 110.082 C 202.314 116.532,202.639 119.886,203.150 120.211 C 204.509 121.075,213.804 120.796,214.574 119.869 C 215.996 118.156,215.873 70.714,214.438 66.884 C 210.315 55.885,198.193 49.130,186.889 51.532 M221.026 52.305 C 219.393 53.551,219.568 119.009,221.207 120.131 C 222.745 121.184,240.394 120.380,244.698 119.062 C 277.768 108.930,277.282 60.995,244.028 52.866 C 239.122 51.667,222.397 51.259,221.026 52.305 M324.171 52.427 C 303.857 58.146,306.186 84.406,327.569 90.741 C 334.122 92.682,335.875 93.642,337.384 96.117 C 340.789 101.701,336.134 108.472,329.604 107.435 C 327.394 107.084,326.337 106.222,322.923 101.984 C 321.768 100.551,313.240 98.132,311.583 98.767 C 310.029 99.364,310.348 104.808,312.167 108.713 C 321.432 128.612,351.302 122.097,351.370 100.163 C 351.404 88.853,345.347 82.163,331.872 78.632 C 323.389 76.409,320.539 70.901,325.553 66.420 C 328.401 63.876,331.333 64.212,334.696 67.467 C 336.504 69.218,338.209 70.029,342.251 71.064 C 348.532 72.672,349.267 72.252,348.388 67.549 C 346.354 56.661,334.787 49.438,324.171 52.427 M357.586 52.133 L 355.954 52.585 355.449 72.133 C 354.712 100.669,355.035 119.293,356.281 120.080 C 357.630 120.932,383.435 120.898,385.035 120.042 C 386.116 119.463,386.297 118.642,386.297 114.294 C 386.297 107.253,386.174 107.148,377.626 106.896 C 369.327 106.651,369.355 106.675,369.341 100.042 C 369.324 92.034,369.352 92.007,377.667 92.007 C 386.256 92.007,386.297 91.975,386.297 85.397 C 386.297 78.563,385.989 78.303,377.898 78.303 C 370.280 78.303,369.984 78.089,369.984 72.584 C 369.984 66.095,370.200 65.907,377.674 65.895 C 386.055 65.882,385.971 65.955,385.971 58.728 C 385.971 54.175,385.744 52.664,384.992 52.188 C 383.882 51.487,360.087 51.438,357.586 52.133 M43.914 65.482 C 50.567 68.262,53.021 77.477,48.638 83.223 C 44.039 89.253,34.898 89.227,30.278 83.171 C 23.292 74.011,33.289 61.042,43.914 65.482 M96.445 66.363 C 100.289 69.233,100.816 70.658,100.816 78.186 L 100.816 85.155 91.354 85.155 L 81.892 85.155 81.708 78.268 C 81.403 66.840,88.935 60.756,96.445 66.363 M195.360 65.507 C 200.535 67.669,202.889 73.330,201.847 81.108 L 201.305 85.155 192.586 85.338 C 181.757 85.564,182.055 85.771,182.056 78.060 C 182.058 67.489,187.596 62.263,195.360 65.507 M145.419 66.183 C 149.716 68.405,149.975 76.513,145.835 79.226 C 141.635 81.978,136.613 80.430,134.271 75.663 C 131.113 69.232,138.753 62.735,145.419 66.183 M243.786 67.468 C 254.969 72.676,258.918 86.589,252.222 97.195 C 249.061 102.202,241.650 106.620,237.047 106.239 L 234.584 106.036 234.411 86.794 C 234.315 76.211,234.380 67.181,234.553 66.729 C 235.073 65.376,240.169 65.784,243.786 67.468 M263.006 124.632 C 266.396 125.574,268.512 128.197,270.719 134.193 L 272.676 139.511 270.596 139.866 C 269.452 140.061,264.551 140.310,259.706 140.420 L 250.897 140.620 249.994 136.815 C 248.379 130.012,250.335 126.681,256.997 124.886 C 260.819 123.857,260.293 123.879,263.006 124.632 M74.062 125.667 C 73.344 125.823,71.142 126.267,69.168 126.653 C 38.061 132.735,31.572 175.824,59.380 191.646 C 70.497 197.971,86.800 197.818,87.683 191.381 C 89.039 181.486,88.286 180.088,82.505 181.769 C 75.025 183.943,66.734 181.635,61.455 175.908 C 46.222 159.382,61.804 134.109,83.292 140.491 C 87.628 141.778,88.091 141.278,88.091 135.312 C 88.091 129.239,87.427 127.547,84.706 126.691 C 82.102 125.872,75.873 125.273,74.062 125.667 M92.496 127.295 C 91.175 128.065,90.701 190.694,91.990 194.085 C 92.800 196.215,102.817 196.692,104.488 194.680 C 106.050 192.799,106.214 128.573,104.660 127.437 C 103.271 126.421,94.179 126.315,92.496 127.295 M109.553 128.385 C 108.568 130.939,109.096 138.907,110.301 139.669 C 110.826 140.002,113.473 140.278,116.183 140.284 C 123.206 140.298,122.675 138.025,122.675 168.077 C 122.675 198.526,121.949 195.895,130.278 195.622 L 136.052 195.432 136.462 186.297 C 136.687 181.272,136.908 169.170,136.951 159.403 C 137.044 138.746,136.413 140.294,144.739 140.294 C 151.352 140.294,151.649 139.972,151.259 133.235 C 150.839 125.985,152.764 126.591,130.125 126.591 L 110.245 126.591 109.553 128.385 M153.779 127.026 C 152.756 128.049,153.819 130.829,162.643 150.211 L 171.941 170.636 172.268 183.034 L 172.594 195.432 178.695 195.621 C 186.947 195.876,186.477 196.659,186.768 182.180 L 187.013 169.984 196.164 150.082 C 201.197 139.135,205.508 129.656,205.744 129.017 C 206.349 127.381,203.875 126.575,198.489 126.656 C 190.980 126.768,191.548 126.200,185.887 139.260 C 178.915 155.342,180.276 155.400,173.126 138.714 C 170.524 132.641,168.018 127.434,167.558 127.142 C 166.556 126.506,154.401 126.403,153.779 127.026 M241.099 133.713 C 243.354 134.594,244.932 143.142,243.326 145.776 C 240.068 151.118,242.579 159.018,249.610 165.549 C 256.044 171.526,256.341 175.849,250.520 178.819 C 243.992 182.149,240.606 180.692,237.097 173.044 C 230.065 157.722,226.434 140.172,229.527 136.456 C 231.622 133.938,237.879 132.456,241.099 133.713 M221.207 143.810 C 221.207 148.050,226.816 166.507,231.108 176.393 C 233.734 182.439,231.165 185.971,224.143 185.971 C 216.681 185.971,204.914 155.635,209.178 147.390 C 210.574 144.690,221.207 141.526,221.207 143.810 M298.206 149.373 C 301.794 153.188,311.299 169.719,313.244 175.530 C 316.505 185.272,312.127 204.320,301.866 225.032 L 296.900 235.055 296.900 241.485 C 296.900 249.995,300.040 249.266,263.418 249.266 C 227.272 249.266,230.799 250.182,230.616 240.743 L 230.490 234.292 225.480 226.608 C 216.711 213.158,212.246 202.300,209.056 186.662 C 206.992 176.543,207.055 176.357,210.494 182.382 C 217.115 193.980,226.658 196.221,235.481 188.251 C 237.962 186.009,238.302 185.888,240.218 186.556 C 245.183 188.287,252.207 186.588,256.799 182.546 C 259.600 180.080,259.779 180.021,262.078 180.779 C 266.690 182.301,273.515 181.666,279.361 179.169 C 280.148 178.833,280.860 179.469,282.137 181.648 C 283.933 184.714,285.572 185.688,287.764 184.992 C 289.860 184.327,290.040 181.859,288.223 178.681 C 287.335 177.128,285.971 173.897,285.192 171.501 C 283.321 165.746,283.437 165.806,273.001 165.130 C 258.989 164.224,252.875 161.736,249.985 155.766 C 246.223 147.995,246.912 147.710,272.127 146.606 C 296.066 145.558,294.456 145.387,298.206 149.373 M274.388 172.224 C 276.972 172.657,276.983 172.670,275.415 173.527 C 271.286 175.788,263.813 175.065,262.312 172.259 C 261.594 170.917,266.495 170.903,274.388 172.224 M255.054 193.840 C 243.759 196.513,228.571 211.205,233.900 214.305 C 234.565 214.692,237.153 216.824,239.650 219.044 C 255.428 233.067,271.705 232.969,287.123 218.760 C 289.557 216.517,291.872 214.682,292.267 214.682 C 294.960 214.682,291.906 207.684,287.101 202.845 C 279.281 194.971,266.021 191.245,255.054 193.840 M270.450 198.064 C 275.082 199.270,279.796 201.754,283.065 204.709 L 285.481 206.894 280.857 204.635 C 268.982 198.831,257.140 198.809,245.729 204.567 C 240.066 207.425,239.761 207.182,244.536 203.615 C 252.573 197.609,261.426 195.713,270.450 198.064 M268.822 205.076 C 276.948 209.188,273.585 222.626,264.185 223.605 C 255.765 224.482,249.971 215.135,254.446 207.894 C 256.649 204.331,264.362 202.819,268.822 205.076 M248.287 213.214 C 248.287 215.636,248.538 218.314,248.845 219.164 C 249.549 221.113,247.429 220.000,242.820 216.002 C 239.557 213.171,239.654 212.686,243.927 210.461 C 248.219 208.226,248.287 208.269,248.287 213.214 M257.736 210.791 C 256.586 212.939,260.730 218.597,263.451 218.597 C 264.555 218.597,268.842 213.620,268.842 212.338 C 268.842 209.788,265.559 208.438,263.752 210.245 C 263.143 210.854,262.795 210.854,262.186 210.245 C 260.963 209.022,258.522 209.322,257.736 210.791 M283.095 211.329 L 286.582 213.134 282.866 216.531 C 278.544 220.481,276.252 221.937,276.863 220.345 C 278.074 217.190,278.686 213.553,278.327 211.642 C 277.820 208.942,278.410 208.903,283.095 211.329 " stroke="none" fill="#000000" fill-rule="evenodd"></path></g></svg>